<?xml version="1.0" encoding="UTF-8" standalone="no"?>
<!-- Created with Inkscape (http://www.inkscape.org/) -->

<svg
   width="55.653191mm"
   height="24.805698mm"
   viewBox="0 0 55.653191 24.805698"
   version="1.1"
   id="svg1"
   xml:space="preserve"
   xmlns:xlink="http://www.w3.org/1999/xlink"
   xmlns="http://www.w3.org/2000/svg"
   xmlns:svg="http://www.w3.org/2000/svg"><defs
     id="defs1"><linearGradient
       id="linearGradient1"><stop
         style="stop-color:#abcf00;stop-opacity:1;"
         offset="0.18164442"
         id="stop1" /><stop
         style="stop-color:#b82424;stop-opacity:0.49803922;"
         offset="1"
         id="stop3" /><stop
         style="stop-color:#ffff00;stop-opacity:0;"
         offset="1"
         id="stop2" /></linearGradient><linearGradient
       xlink:href="#linearGradient1"
       id="linearGradient2"
       x1="2.549165"
       y1="126.72404"
       x2="120.19699"
       y2="126.72404"
       gradientUnits="userSpaceOnUse"
       gradientTransform="matrix(0.48931045,0,0,0.48931045,57.560273,29.154947)" /><clipPath
       clipPathUnits="userSpaceOnUse"
       id="clipPath75"><path
         style="fill:#000000;stroke-width:0.48931"
         d="m 73.737338,88.725309 c -0.04608,-0.0833 0.126595,-0.392028 0.38372,-0.686139 0.664911,-0.760529 0.422362,-1.022236 -0.396219,-0.427511 -0.540086,0.39239 -0.778161,0.44627 -0.778161,0.176131 0,-0.06082 0.226666,-0.278107 0.503703,-0.48287 0.708028,-0.523325 0.466487,-0.803963 -0.323167,-0.375471 -0.659159,0.357683 -0.670539,0.35927 -0.670539,0.0935 0,-0.160385 0.423013,-0.46682 0.94556,-0.684967 0.01474,-0.0062 -0.107982,-0.377399 -0.272719,-0.824986 -0.164738,-0.447588 -0.300832,-0.930048 -0.302432,-1.072137 -0.0016,-0.142089 -0.219493,-0.520777 -0.484209,-0.841534 -1.265523,-1.533427 -1.202738,-2.035069 0.259353,-2.072163 0.959932,-0.02437 1.005519,-0.0407 1.442167,-0.516914 0.455141,-0.496382 1.490892,-1.031386 1.996749,-1.031386 0.249251,0 0.274315,-0.06563 0.274315,-0.718312 0,-1.177467 0.326321,-1.60696 1.877711,-2.471388 0.719023,-0.400635 1.631169,-0.961914 2.026989,-1.24728 0.864605,-0.623343 1.252783,-0.60633 2.208945,0.09679 0.478192,0.351641 0.695439,0.435911 0.930164,0.360812 0.442277,-0.14151 2.081503,-0.14573 2.516235,-0.0065 0.316545,0.101396 0.485614,0.04127 1.15453,-0.410464 0.987552,-0.666935 1.242119,-0.662395 2.209163,0.03946 0.430982,0.31278 1.199914,0.781553 1.708748,1.041723 2.035048,1.040524 2.48153,1.979763 1.849879,3.89151 -0.131469,0.397894 -0.331512,1.14082 -0.444537,1.650947 -0.345017,1.557139 -0.743855,1.888612 -1.543325,1.28265 -0.423566,-0.321038 -0.423566,-0.321038 -0.70449,0.68975 -1.339183,4.818502 -7.36413,6.038623 -9.951104,2.01522 -0.387879,-0.603252 -0.387879,-0.603252 -0.787093,0.05885 -0.87893,1.457706 -3.202956,2.240193 -4.334214,1.459304 -0.05483,-0.03785 -0.29165,0.1685 -0.526269,0.45856 -0.52564,0.64984 -0.662334,0.7484 -0.769453,0.554818 z m 12.19445,-1.239962 c 2.41359,-0.607909 4.11136,-3.701695 3.322942,-6.055265 -0.143227,-0.427561 -0.260411,-0.940342 -0.260411,-1.139515 0,-4.214246 -8.14292,-4.412811 -8.636114,-0.210593 -0.04205,0.35827 -0.16034,0.928463 -0.262869,1.267095 -0.415716,1.373 -0.309721,2.304545 0.420259,3.693568 1.103405,2.099569 3.138837,3.018303 5.416193,2.44471 z m -1.715014,-0.352023 c -0.661931,-0.271841 -0.876932,-1.45923 -0.340243,-1.879087 0.434189,-0.339669 1.274606,-0.27641 1.632074,0.122849 0.766495,0.856097 -0.219535,2.196608 -1.291831,1.756238 z m -2.277133,-4.129476 c -0.716799,-0.488196 -0.937874,-0.946682 -0.881407,-1.82794 0.162671,-2.538789 3.403545,-2.401539 3.403545,0.144137 0,1.40063 -1.483625,2.391111 -2.522138,1.683803 z m 1.297125,-1.109491 c 0.643265,-0.71846 -0.166079,-1.863209 -0.924756,-1.307999 -0.404011,0.295669 -0.419693,1.062222 -0.028,1.368652 0.366434,0.28666 0.658426,0.268076 0.952751,-0.06065 z m 2.873208,-0.06219 c -0.165375,-0.184711 -0.300686,-0.433787 -0.300686,-0.553503 0,-0.119719 0.135311,-0.368795 0.300686,-0.553506 0.165375,-0.184705 0.388382,-0.335833 0.49557,-0.335833 0.107188,0 0.3302,0.151128 0.495575,0.335833 0.165375,0.184711 0.300683,0.433787 0.300683,0.553506 0,0.119716 -0.135308,0.368792 -0.300683,0.553503 -0.165375,0.184711 -0.388387,0.335833 -0.495575,0.335833 -0.107188,0 -0.330195,-0.151122 -0.49557,-0.335833 z m -8.710676,5.387348 c 1.073555,-0.332947 2.141948,-1.904619 1.294723,-1.904619 -0.713169,0 -0.561838,-0.33024 0.175916,-0.383895 0.322127,-0.02344 0.543777,-0.09882 0.503658,-0.171323 -0.03941,-0.07121 -0.288824,-0.0907 -0.55426,-0.04328 -0.496366,0.08865 -0.706908,-0.151966 -0.268234,-0.306554 0.569034,-0.200523 0.689295,-0.318344 0.245004,-0.240033 -0.568682,0.100245 -0.631465,-0.174342 -0.09188,-0.401823 0.202128,-0.08522 0.367506,-0.233788 0.367506,-0.330171 0,-0.239839 -0.11625,-0.220178 -0.584843,0.09892 -0.846259,0.576284 -1.550458,0.04121 -1.573818,-1.19585 -0.01654,-0.876234 -0.310875,-1.81473 -0.569129,-1.81473 -0.873827,0 -2.447968,1.065572 -2.155529,1.459132 0.275799,0.371163 -0.0659,0.518848 -0.62371,0.269566 -0.53998,-0.241316 -1.475534,-0.303123 -1.475534,-0.09748 0,0.239752 0.808482,1.311344 1.195136,1.584084 0.391922,0.276448 0.521478,0.683509 0.24974,0.784678 -0.154209,0.05741 0.179311,1.257202 0.389885,1.402561 0.05525,0.03816 0.337876,-0.04939 0.628063,-0.194495 0.503184,-0.251616 0.722204,-0.258151 0.722204,-0.02156 0,0.05938 -0.220501,0.219024 -0.490003,0.354758 -0.269502,0.135734 -0.490006,0.299009 -0.490006,0.362834 0,0.192064 0.164775,0.133768 0.638821,-0.226015 0.522628,-0.39665 0.586192,-0.412324 0.586192,-0.144555 0,0.108622 -0.165378,0.306607 -0.367504,0.439968 -0.373099,0.246157 -0.479478,0.457107 -0.23051,0.457107 0.07535,0 0.293267,-0.199909 0.484264,-0.444243 0.276363,-0.353529 0.378291,-0.409591 0.499203,-0.274545 0.120912,0.135046 0.08253,0.250608 -0.187968,0.565951 -0.246129,0.286936 -0.29491,0.416325 -0.176818,0.46898 0.288123,0.128471 1.373531,0.09731 1.859428,-0.05338 z m -1.14509,-0.741638 c 0,-0.112876 0.09647,-0.206174 0.214376,-0.20733 0.606785,-0.0059 0.626872,-0.542986 0.03063,-0.818832 -0.750459,-0.347184 -0.368782,-1.094569 0.558982,-1.094569 0.325424,0 0.328935,0.0097 0.248555,0.686473 -0.09282,0.781491 0.123714,1.034076 0.532376,0.621008 0.17286,-0.174723 0.25083,-0.189978 0.32118,-0.06284 0.111417,0.20135 -0.364249,0.670859 -0.679656,0.670859 -0.119039,0 -0.285057,0.09236 -0.368932,0.205234 -0.08388,0.112877 -0.311126,0.20523 -0.505005,0.20523 -0.231669,0 -0.352502,-0.07035 -0.352502,-0.20523 z m -1.450105,-2.104096 c -0.214,-0.151501 -0.137467,-0.701794 0.12295,-0.884068 0.26748,-0.187217 0.592148,0.102002 0.592148,0.527494 0,0.407604 -0.377283,0.595733 -0.715098,0.356574 z m 3.868317,-2.251493 c 0.541351,-0.655953 0.696963,-1.085332 0.887119,-2.447827 0.182824,-1.309963 0.567793,-2.162395 1.515425,-3.355573 0.337595,-0.425072 0.15598,-0.385048 -0.501454,0.110519 -0.305263,0.230103 -1.112576,0.7264 -1.794032,1.102889 -1.731163,0.956421 -1.917961,1.304002 -1.440785,2.680938 0.124838,0.360233 0.325958,1.07056 0.446934,1.57851 0.259966,1.091533 0.25904,1.091184 0.886793,0.330544 z M 91.61553,81.53849 c 0.106455,-0.45911 0.276865,-1.057439 0.378687,-1.329616 0.49312,-1.318165 0.222063,-1.825691 -1.426995,-2.671871 -0.583473,-0.299402 -1.354495,-0.765225 -1.713376,-1.035166 -0.839618,-0.631529 -0.957265,-0.62012 -0.450956,0.0437 0.847715,1.111462 1.208583,1.964055 1.403369,3.315605 0.198308,1.375995 0.44958,1.967947 1.062916,2.504072 0.449961,0.393311 0.468116,0.3732 0.746355,-0.826741 z"
         id="path75"
         clip-path="none" /></clipPath></defs><g
     id="layer1"
     transform="translate(-56.838205,-74.571745)"><text
       xml:space="preserve"
       style="font-size:11.611px;font-family:'Ginger Cat';-inkscape-font-specification:'Ginger Cat, Normal';fill:url(#linearGradient2);stroke:#000000;stroke-width:0.295109;stroke-linecap:round;stroke-linejoin:round"
       x="58.351387"
       y="95.516464"
       id="text1"
       transform="scale(0.96659499,1.0345595)"><tspan
         id="tspan1"
         style="fill:url(#linearGradient2);stroke-width:0.295109"
         x="58.351387"
         y="95.516464">PATITAS</tspan></text><rect
       style="fill:#000000;fill-opacity:1;stroke:#000000;stroke-width:2.436;stroke-linecap:round;stroke-linejoin:round;stroke-dasharray:none;stroke-opacity:1"
       id="rect61"
       width="24.793955"
       height="14.16127"
       x="69.729149"
       y="74.799774"
       clip-path="url(#clipPath75)"
       transform="translate(-0.27812726,-0.51707477)" /></g></svg>
